<?xml version="1.0" encoding="UTF-8" standalone="no"?>
<svg
   xmlns:dc="http://purl.org/dc/elements/1.1/"
   xmlns:cc="http://creativecommons.org/ns#"
   xmlns:rdf="http://www.w3.org/1999/02/22-rdf-syntax-ns#"
   xmlns:svg="http://www.w3.org/2000/svg"
   xmlns="http://www.w3.org/2000/svg"
   id="svg842"
   style="clip-rule:evenodd;fill-rule:evenodd;stroke-linejoin:round;stroke-miterlimit:2"
   xml:space="preserve"
   version="1.1"
   viewBox="0 0 332.67386 427.72308"
   height="427.72308"
   width="332.67386"><metadata
   id="metadata848"><rdf:RDF><cc:Work
       rdf:about=""><dc:format>image/svg+xml</dc:format><dc:type
         rdf:resource="http://purl.org/dc/dcmitype/StillImage" /><dc:title></dc:title></cc:Work></rdf:RDF></metadata><defs
   id="defs846" /><sodipodi:namedview
   fit-margin-bottom="0"
   fit-margin-right="0"
   fit-margin-left="0"
   fit-margin-top="0"
   showgrid="false"
   id="namedview844"
   guidetolerance="10"
   gridtolerance="10"
   objecttolerance="10"
   borderopacity="1"
   bordercolor="#666666"
   pagecolor="#ffffff" />
    <g
   transform="matrix(0.09240939,0,0,0.11881196,8.4648332e-6,-3.2261908e-4)"
   id="Layer">
        <g
   id="g835"
   transform="matrix(0.820977,0,0,0.758222,-226.662,-854.885)">
            <rect
   id="rect833"
   style="fill:#ffffff"
   height="4747.9502"
   width="4385.02"
   y="1127.49"
   x="276.08801" />
        </g>
        <g
   id="g839"
   transform="matrix(10.3077,0,0,10.3077,-9264.65,-22431.3)">
            <path
   id="path837"
   d="m 1064.81,2441.75 v 54.65 c 0,4.76 3.86,8.63 8.62,8.63 4.76,0 8.63,-3.87 8.63,-8.63 v -54.65 h 8.35 c 43.16,0 74.02,-35 74.02,-78.16 v -3.6 c 0,-1.8 -0.72,-3.53 -2,-4.81 -1.27,-1.28 -3,-1.99 -4.81,-1.99 -0.04,0 -0.08,0 -0.12,0 -1.8,0 -3.53,0.71 -4.81,1.99 -1.27,1.28 -1.99,3.01 -1.99,4.81 0,1.91 0,3.6 0,3.6 0,35.53 -24.76,64.43 -60.29,64.43 0,0 -33.96,0 -33.96,0 -35.53,0 -60.287,-28.9 -60.287,-64.43 v -3.6 c 0,-1.8 -0.717,-3.53 -1.993,-4.81 -1.277,-1.28 -3.007,-1.99 -4.812,-1.99 -0.04,0 -0.079,0 -0.119,0 -1.805,0 -3.536,0.71 -4.812,1.99 -1.276,1.28 -1.993,3.01 -1.993,4.81 0,1.91 0,3.6 0,3.6 0,43.16 30.856,78.16 74.016,78.16 z m -55.14,-204.07 h 24.55 c 5.53,0 10.03,4.49 10.03,10.02 0,5.53 -4.5,10.02 -10.03,10.02 h -24.69 v 16.85 h 24.69 c 5.53,0 10.03,4.49 10.03,10.02 0,5.54 -4.5,10.03 -10.03,10.03 h -24.69 v 16.84 h 24.69 c 5.53,0 10.03,4.49 10.03,10.03 0,5.53 -4.5,10.02 -10.03,10.02 h -24.69 v 16.85 h 24.69 c 5.53,0 10.03,4.49 10.03,10.02 0,5.53 -4.5,10.03 -10.03,10.03 h -24.69 v 1.84 c 0,24.7 20.05,44.75 44.74,44.75 h 38.32 c 24.7,0 44.75,-20.05 44.75,-44.75 v -1.84 h -24.7 c -5.53,0 -10.02,-4.5 -10.02,-10.03 0,-5.53 4.49,-10.02 10.02,-10.02 h 24.7 v -16.85 h -24.7 c -5.53,0 -10.02,-4.49 -10.02,-10.02 0,-5.54 4.49,-10.03 10.02,-10.03 h 24.7 v -16.84 h -24.7 c -5.53,0 -10.02,-4.49 -10.02,-10.03 0,-5.53 4.49,-10.02 10.02,-10.02 h 24.7 v -16.85 h -24.7 c -5.53,0 -10.02,-4.49 -10.02,-10.02 0,-5.53 4.49,-10.02 10.02,-10.02 h 24.55 c -1.84,-23.01 -21.12,-41.13 -44.6,-41.13 h -38.32 c -23.47,0 -42.76,18.12 -44.6,41.13 z" />
        </g>
    </g>
</svg>
