<?xml version="1.0" encoding="UTF-8" standalone="no"?>
<!DOCTYPE svg PUBLIC "-//W3C//DTD SVG 1.1//EN" "http://www.w3.org/Graphics/SVG/1.1/DTD/svg11.dtd">
<svg width="100%" height="100%" viewBox="0 0 3600 3600" version="1.1" xmlns="http://www.w3.org/2000/svg" xmlns:xlink="http://www.w3.org/1999/xlink" xml:space="preserve" xmlns:serif="http://www.serif.com/" style="fill-rule:evenodd;clip-rule:evenodd;stroke-linejoin:round;stroke-miterlimit:2;">
    <g id="Layer">
        <g transform="matrix(0.820977,0,0,0.758222,-226.662,-854.885)">
            <rect x="276.088" y="1127.49" width="4385.02" height="4747.95" style="fill:white;"/>
        </g>
        <g transform="matrix(10.3077,0,0,10.3077,-9264.65,-22431.3)">
            <path d="M1064.81,2441.75L1064.81,2496.4C1064.81,2501.16 1068.67,2505.03 1073.43,2505.03C1078.19,2505.03 1082.06,2501.16 1082.06,2496.4L1082.06,2441.75L1090.41,2441.75C1133.57,2441.75 1164.43,2406.75 1164.43,2363.59L1164.43,2359.99C1164.43,2358.19 1163.71,2356.46 1162.43,2355.18C1161.16,2353.9 1159.43,2353.19 1157.62,2353.19C1157.58,2353.19 1157.54,2353.19 1157.5,2353.19C1155.7,2353.19 1153.97,2353.9 1152.69,2355.18C1151.42,2356.46 1150.7,2358.19 1150.7,2359.99C1150.7,2361.9 1150.7,2363.59 1150.7,2363.59C1150.7,2399.12 1125.94,2428.02 1090.41,2428.02C1090.41,2428.02 1056.45,2428.02 1056.45,2428.02C1020.92,2428.02 996.163,2399.12 996.163,2363.59L996.163,2359.99C996.163,2358.19 995.446,2356.46 994.17,2355.18C992.893,2353.9 991.163,2353.19 989.358,2353.19C989.318,2353.19 989.279,2353.19 989.239,2353.19C987.434,2353.19 985.703,2353.9 984.427,2355.18C983.151,2356.46 982.434,2358.19 982.434,2359.99C982.434,2361.9 982.434,2363.59 982.434,2363.59C982.434,2406.75 1013.29,2441.75 1056.45,2441.75L1064.81,2441.75ZM1009.67,2237.68L1034.22,2237.68C1039.75,2237.68 1044.25,2242.17 1044.25,2247.7C1044.25,2253.23 1039.75,2257.72 1034.22,2257.72L1009.53,2257.72L1009.53,2274.57L1034.22,2274.57C1039.75,2274.57 1044.25,2279.06 1044.25,2284.59C1044.25,2290.13 1039.75,2294.62 1034.22,2294.62L1009.53,2294.62L1009.53,2311.46L1034.22,2311.46C1039.75,2311.46 1044.25,2315.95 1044.25,2321.49C1044.25,2327.02 1039.75,2331.51 1034.22,2331.51L1009.53,2331.51L1009.53,2348.36L1034.22,2348.36C1039.75,2348.36 1044.25,2352.85 1044.25,2358.38C1044.25,2363.91 1039.75,2368.41 1034.22,2368.41L1009.53,2368.41L1009.53,2370.25C1009.53,2394.95 1029.58,2415 1054.27,2415L1092.59,2415C1117.29,2415 1137.34,2394.95 1137.34,2370.25L1137.34,2368.41L1112.64,2368.41C1107.11,2368.41 1102.62,2363.91 1102.62,2358.38C1102.62,2352.85 1107.11,2348.36 1112.64,2348.36L1137.34,2348.36L1137.34,2331.51L1112.64,2331.51C1107.11,2331.51 1102.62,2327.02 1102.62,2321.49C1102.62,2315.95 1107.11,2311.46 1112.64,2311.46L1137.34,2311.46L1137.34,2294.62L1112.64,2294.62C1107.11,2294.62 1102.62,2290.13 1102.62,2284.59C1102.62,2279.06 1107.11,2274.57 1112.64,2274.57L1137.34,2274.57L1137.34,2257.72L1112.64,2257.72C1107.11,2257.72 1102.62,2253.23 1102.62,2247.7C1102.62,2242.17 1107.11,2237.68 1112.64,2237.68L1137.19,2237.68C1135.35,2214.67 1116.07,2196.55 1092.59,2196.55L1054.27,2196.55C1030.8,2196.55 1011.51,2214.67 1009.67,2237.68Z"/>
        </g>
    </g>
</svg>
