<?xml version="1.0" encoding="UTF-8" standalone="no"?>
<svg
   xmlns:dc="http://purl.org/dc/elements/1.1/"
   xmlns:cc="http://creativecommons.org/ns#"
   xmlns:rdf="http://www.w3.org/1999/02/22-rdf-syntax-ns#"
   xmlns:svg="http://www.w3.org/2000/svg"
   xmlns="http://www.w3.org/2000/svg"
   xmlns:xlink="http://www.w3.org/1999/xlink"
   xmlns:sodipodi="http://sodipodi.sourceforge.net/DTD/sodipodi-0.dtd"
   xmlns:inkscape="http://www.inkscape.org/namespaces/inkscape"
   version="1.0"
   width="320"
   height="640"
   viewBox="0 0 1333.3333 2666.6667"
   preserveAspectRatio="xMidYMid meet"
   id="logo"
   sodipodi:docname="microphone.svg"
   inkscape:version="1.0 (4035a4f, 2020-05-01)">
  <metadata
     id="metadata22">
    <rdf:RDF>
      <cc:Work
         rdf:about="">
        <dc:format>image/svg+xml</dc:format>
        <dc:type
           rdf:resource="http://purl.org/dc/dcmitype/StillImage" />
        <dc:title></dc:title>
      </cc:Work>
    </rdf:RDF>
  </metadata>
  <sodipodi:namedview
     inkscape:document-rotation="0"
     pagecolor="#ffffff"
     bordercolor="#666666"
     borderopacity="1"
     objecttolerance="10"
     gridtolerance="10"
     guidetolerance="10"
     inkscape:pageopacity="0"
     inkscape:pageshadow="2"
     inkscape:window-width="1438"
     inkscape:window-height="789"
     id="namedview20"
     showgrid="false"
     inkscape:zoom="2.9110629"
     inkscape:cx="21.990779"
     inkscape:cy="30.09836"
     inkscape:window-x="0"
     inkscape:window-y="25"
     inkscape:window-maximized="0"
     inkscape:current-layer="logo"
     showguides="true" />
  <defs
     id="defs10">
    <linearGradient
       inkscape:collect="always"
       id="linearGradient859">
      <stop
         style="stop-color:#487237;stop-opacity:1;"
         offset="0"
         id="stop855" />
      <stop
         style="stop-color:#487237;stop-opacity:0;"
         offset="1"
         id="stop857" />
    </linearGradient>
    <radialGradient
       inkscape:collect="always"
       xlink:href="#linearGradient859"
       id="radialGradient861"
       cx="646.70038"
       cy="974.32855"
       fx="646.70038"
       fy="974.32855"
       r="443.28763"
       gradientTransform="matrix(1,0,0,1.8901631,19.966294,-867.31135)"
       gradientUnits="userSpaceOnUse" />
    <linearGradient
       inkscape:collect="always"
       xlink:href="#linearGradient859"
       id="linearGradient923"
       x1="659.44092"
       y1="2071.4072"
       x2="1236.8317"
       y2="2071.4072"
       gradientUnits="userSpaceOnUse" />
  </defs>
  <path
     style="opacity:0.874074;fill:#ffffff;fill-opacity:1;stroke:#482c37;stroke-width:33.3333;stroke-linejoin:round;stroke-miterlimit:4;stroke-dasharray:none;stroke-opacity:1"
     id="path849"
     sodipodi:type="arc"
     sodipodi:cx="666.66705"
     sodipodi:cy="1249.0278"
     sodipodi:rx="485.42282"
     sodipodi:ry="830.31726"
     sodipodi:start="0"
     sodipodi:end="3.1568468"
     sodipodi:open="true"
     sodipodi:arc-type="arc"
     d="M 1152.0899,1249.0278 A 485.42282,830.31726 0 0 1 907.23778,1970.2053 485.42282,830.31726 0 0 1 419.69315,1963.8446 485.42282,830.31726 0 0 1 181.30071,1236.3625" />
  <ellipse
     ry="822.31677"
     rx="427.71848"
     cy="974.32855"
     cx="666.66669"
     id="ellipse863"
     style="opacity:0.874074;fill:#0d1b7a;fill-opacity:1;stroke:none;stroke-width:31.1383;stroke-linejoin:round;stroke-miterlimit:4;stroke-dasharray:none;stroke-opacity:1" />
  <g
     id="g915"
     transform="translate(1.863564)">
    <path
       sodipodi:nodetypes="cssccccscccccscccsccsscscc"
       d="m 659.44094,1584.9587 c 1.19767,7.2209 2.53454,14.42 3.593,21.6626 4.71304,32.249 7.96196,64.7008 12.41063,96.9856 1.84858,13.4154 3.91879,26.7993 5.8782,40.199 1.88109,13.7217 3.76217,27.4434 5.64325,41.1652 16.74188,99.694 42.14534,197.7786 68.78875,295.2236 20.07846,75.0251 18.45773,89.7056 52.23286,159.5872 0,0 0,0 51.95952,100.3863 6.68624,12.9179 -6.27363,34.5234 4.4932,44.3392 71.56721,73.7055 40.50088,42.5636 71.56721,73.7055 22.79638,21.8317 68.00274,72.1635 113.62384,83.8591 45.7134,65.6181 175.4631,34.4869 187.2003,48.1602 l -83.7085,-58.1391 v 0 c -12.1889,-13.6517 -24.5114,-27.1983 -38.4324,-39.1413 -23.6238,-21.0288 -46.9055,-42.4333 -70.3474,-63.6569 -31.7352,-30.4494 -61.38921,-62.9449 -92.91567,-93.6046 -10.69083,-9.9495 -22.06742,-19.5978 -31.54004,-30.766 -10.20359,-12.0301 -17.21788,-26.4263 -25.54442,-39.6921 -36.59012,-67.5872 -66.58179,-138.634 -88.11804,-212.4893 -15.26325,-54.8171 -16.897,-57.8803 -29.30687,-113.8666 -15.71375,-70.8917 -6.80075,-35.9045 -19.97675,-103.6459 -19.43359,-99.9134 2.1935,22.0263 -15.28359,-79.0565 -9.23254,-69.563 -2.04791,-12.806 -9.86816,-82.1541 -4.54909,-40.34 -10.34359,-80.7354 -9.83917,-121.4373 z"
       id="path901"
       style="opacity:0.881029;fill:url(#linearGradient923);fill-opacity:1.0;stroke:none;stroke-width:33.3333;stroke-linejoin:round;stroke-miterlimit:4;stroke-dasharray:none;stroke-opacity:1" />
    <path
       style="opacity:0.881029;fill:#fcad1d;fill-opacity:1;stroke:none;stroke-width:33.3333;stroke-linejoin:round;stroke-miterlimit:4;stroke-dasharray:none;stroke-opacity:1"
       id="path911"
       d="m 670.1661,1584.9587 c -1.1977,7.2209 -2.5345,14.42 -3.59303,21.6626 -4.713,32.249 -7.962,64.7008 -12.41063,96.9856 -1.8486,13.4154 -3.9188,26.7993 -5.87823,40.199 -1.8811,13.7217 -3.7622,27.4434 -5.6433,41.1652 -16.74196,99.694 -42.14545,197.7786 -68.78897,295.2236 -20.07856,75.0251 -18.45786,89.7056 -52.23308,159.5872 0,0 0,0 -51.95968,100.3863 -6.68623,12.9179 6.27363,34.5234 -4.49323,44.3392 -71.56725,73.7055 -40.50092,42.5636 -71.56725,73.7055 -22.79638,21.8317 -68.00275,72.1635 -113.6239,83.8591 -45.7134,65.6181 -175.4631,34.4869 -187.200303,48.1602 L 176.483,2532.0931 v 0 c 12.1889,-13.6517 24.5114,-27.1983 38.4324,-39.1413 23.6238,-21.0288 46.9055,-42.4333 70.3474,-63.6569 31.73519,-30.4494 61.38927,-62.9449 92.91573,-93.6046 10.69083,-9.9495 22.06742,-19.5978 31.54004,-30.766 10.20359,-12.0301 17.21788,-26.4263 25.54442,-39.6921 36.59019,-67.5872 66.58201,-138.634 88.11827,-212.4893 15.26336,-54.8171 16.89706,-57.8803 29.30702,-113.8666 15.71376,-70.8917 6.80073,-35.9045 19.97676,-103.6459 19.43369,-99.9134 -2.1935,22.0263 15.28366,-79.0565 9.23263,-69.563 2.0479,-12.806 9.86823,-82.1541 4.54913,-40.34 10.34363,-80.7354 9.83913,-121.4373 z"
       sodipodi:nodetypes="cssccccscccccscccsccsscscc" />
  </g>
  <ellipse
     style="opacity:0.874074;fill:url(#radialGradient861);fill-opacity:1;stroke:none;stroke-width:31.1383;stroke-linejoin:round;stroke-miterlimit:4;stroke-dasharray:none;stroke-opacity:1"
     id="path853"
     cx="666.66669"
     cy="974.32855"
     rx="427.71848"
     ry="822.31677" />
  <rect
     style="opacity:0.99;fill:#ffffff;fill-opacity:1;stroke:none;stroke-width:33.3333;stroke-linejoin:round;stroke-miterlimit:4;stroke-dasharray:none;stroke-opacity:1"
     id="rect877"
     width="247.09302"
     height="29.069767"
     x="407.56378"
     y="414.92606"
     transform="rotate(12.30089)" />
  <rect
     transform="rotate(12.30089)"
     y="491.7551"
     x="407.25824"
     height="29.069767"
     width="247.09302"
     id="rect879"
     style="opacity:0.99;fill:#ffffff;fill-opacity:1;stroke:none;stroke-width:33.3333;stroke-linejoin:round;stroke-miterlimit:4;stroke-dasharray:none;stroke-opacity:1" />
  <rect
     style="opacity:0.99;fill:#ffffff;fill-opacity:1;stroke:none;stroke-width:33.3333;stroke-linejoin:round;stroke-miterlimit:4;stroke-dasharray:none;stroke-opacity:1"
     id="rect881"
     width="247.09302"
     height="29.069767"
     x="406.9527"
     y="568.58411"
     transform="rotate(12.30089)" />
  <rect
     transform="rotate(12.30089)"
     y="346.23904"
     x="409.64471"
     height="29.069767"
     width="247.09302"
     id="rect883"
     style="opacity:0.99;fill:#ffffff;fill-opacity:1;stroke:none;stroke-width:33.3333;stroke-linejoin:round;stroke-miterlimit:4;stroke-dasharray:none;stroke-opacity:1" />
  <rect
     transform="matrix(-0.97704227,0.21304556,0.21304556,0.97704227,0,0)"
     y="700.01874"
     x="-899.89374"
     height="29.069767"
     width="247.09302"
     id="rect891"
     style="opacity:0.99;fill:#ffffff;fill-opacity:1;stroke:none;stroke-width:33.3333;stroke-linejoin:round;stroke-miterlimit:4;stroke-dasharray:none;stroke-opacity:1" />
  <rect
     style="opacity:0.99;fill:#ffffff;fill-opacity:1;stroke:none;stroke-width:33.3333;stroke-linejoin:round;stroke-miterlimit:4;stroke-dasharray:none;stroke-opacity:1"
     id="rect893"
     width="247.09302"
     height="29.069767"
     x="-900.19928"
     y="776.84778"
     transform="matrix(-0.97704227,0.21304556,0.21304556,0.97704227,0,0)" />
  <rect
     transform="matrix(-0.97704227,0.21304556,0.21304556,0.97704227,0,0)"
     y="853.67682"
     x="-900.50482"
     height="29.069767"
     width="247.09302"
     id="rect895"
     style="opacity:0.99;fill:#ffffff;fill-opacity:1;stroke:none;stroke-width:33.3333;stroke-linejoin:round;stroke-miterlimit:4;stroke-dasharray:none;stroke-opacity:1" />
  <rect
     style="opacity:0.99;fill:#ffffff;fill-opacity:1;stroke:none;stroke-width:33.3333;stroke-linejoin:round;stroke-miterlimit:4;stroke-dasharray:none;stroke-opacity:1"
     id="rect897"
     width="247.09302"
     height="29.069767"
     x="-897.81281"
     y="631.33179"
     transform="matrix(-0.97704227,0.21304556,0.21304556,0.97704227,0,0)" />
  <path
     d="m 1141.8418,1251.1952 a 475.17474,811.6582 0 0 1 -239.68287,704.971 475.17474,811.6582 0 0 1 -477.25175,-6.2177 475.17474,811.6582 0 0 1 -233.35959,-711.134"
     sodipodi:arc-type="arc"
     sodipodi:open="true"
     sodipodi:end="3.1568468"
     sodipodi:start="0"
     sodipodi:ry="811.6582"
     sodipodi:rx="475.17474"
     sodipodi:cy="1251.1952"
     sodipodi:cx="666.66705"
     sodipodi:type="arc"
     id="path851"
     style="opacity:0.874074;fill:none;fill-opacity:1;stroke:#487237;stroke-width:32.6069;stroke-linejoin:round;stroke-miterlimit:4;stroke-dasharray:none;stroke-opacity:1" />
</svg>
